# xmcd
#
# Track frame offsets: 
#        150
#        4443
#        15597
#        27732
#        40156
#        53351
#        58062
#        72369
#        86494
#        91181
#        96271
#        104960
#        119961
#        133871
#        146870
#        150310
#        164432
#        177916
#        190871
#        204468
#        218237
#        222654
#        236847
#        250991
#        264170
#        278554
#
# Disc length: 3908 seconds
#
# Revision: 0
# Processed by: cddbd v1.5.2PL0 Copyright (c) Steve Scherf et al.
# Submitted via: ExactAudioCopy v1.0b3
#
DISCID=8b0f421a
DTITLE=Various Artist - Steve Roden - ...i listen to the wind that obl
DTITLE=iterates my traces [CDtwo)
DYEAR=2011
DGENRE=Blues
TTITLE0=gennett sound effects - walking in snow and thin underbrush
TTITLE1=kelly harrell - rovin' gambler
TTITLE2=sara martin and sylvester waever - i've got to go and leave my d
TTITLE2=addy behind
TTITLE3=frank ferera's hawaiians - pinin' hawaii for you
TTITLE4=gabriel brown and his guitar - going my way
TTITLE5=gennett sound effects - rainfall and thunder (thunder not from
TTITLE5=life)
TTITLE6=lew childre - it don't do nothing but train
TTITLE7=bertha idaho - graveyard love
TTITLE8=frank luther - pretty polly
TTITLE9=gennett sound effects - canary birds: several hundred
TTITLE10=roland hayes - xango
TTITLE11=dick reinhert - the girl i left behind me
TTITLE12=rev. calbert and sister billie holstein - yes i know
TTITLE13=chubby parker - bib-a-lollie-boo
TTITLE14=thurlow lieurance and clement barone - winnebago love song (due
TTITLE14=t)
TTITLE15=clara smith - my good for nuthin' man
TTITLE16=sol hoopii's novelty trio - stack o'lee blues
TTITLE17=ukulele ike (cliff edwards) - (i'm cryin' 'cause i know i'm) 
TTITLE17=losing you
TTITLE18=marc williams - william and mary
TTITLE19=anonymous - way down home
TTITLE20=gennett sound effects - night noises
TTITLE21=gid tanner and his skillet lickers with riley puckett - ya gott
TTITLE21=a quit kickin' my dog aroun'
TTITLE22=stovepipe no.I (sam jones) - cripple creek and sourwood mount
TTITLE22=ain
TTITLE23=goebel reeves - cowboy's prayer
TTITLE24=bill kearney and earl bush - precious memorys (sic)
TTITLE25=carl t. sprague - o bury me not on the lone prairie
EXTD=
EXTT0=
EXTT1=
EXTT2=
EXTT3=
EXTT4=
EXTT5=
EXTT6=
EXTT7=
EXTT8=
EXTT9=
EXTT10=
EXTT11=
EXTT12=
EXTT13=
EXTT14=
EXTT15=
EXTT16=
EXTT17=
EXTT18=
EXTT19=
EXTT20=
EXTT21=
EXTT22=
EXTT23=
EXTT24=
EXTT25=
PLAYORDER=
